<svg style="width:100%; height:auto;" id="logo" data-name="logo" xmlns="http://www.w3.org/2000/svg" viewBox="0 0 360.53 610.9" class="icon" fill="currentColor" stroke="currentColor" focusable="false"><defs><style>.cls-1 {
	stroke-width: 0px;
}</style></defs><g id="template_example"><g><path class="cls-1" d="m228.01,72.81c-1.16,1.69-2,3.78-3.53,4.99-7.4,5.83-14.5,12.3-22.63,16.89-11.83,6.68-23.49,13.2-31.15,25.09-.52-.15-1.05-.3-1.57-.46,0-3.11-.3-6.26.05-9.33,3.5-31.11,16.92-57.49,38.77-79.6,11.87-12.01,25.08-22.37,40.9-28.81,2.88-1.17,6.26-1.09,9.41-1.58.01,2.88.34,5.81,0,8.65-3.19,25.72-16.87,44.6-38.29,58.38-2.22,1.43-4.38,2.94-7.42,4.98,5.57-.3,10.21-.55,14.85-.81l.62,1.6Z"></path><path class="cls-1" d="m120.12,87.28c-23.39-8.92-42.03-31.76-41.66-49.88,37.23,3.29,76.46,41.08,80.21,83.7-.28.14-.66.46-.83.37-12.73-6.83-25.48-13.61-38.11-20.6-2.58-1.43-4.88-3.47-7.01-5.54-1.05-1.02-2.2-3.04-1.83-4.1.38-1.11,2.49-1.71,3.92-2.33,1.29-.56,2.7-.85,5.31-1.63Z"></path><path class="cls-1" d="m191.03,352.95c-2.92-1.02-5.22-1.83-7.54-2.64.12-.33.19-.86.33-.87,7.29-.88,10.28-5.28,10.93-12.31.4-4.26,1.72-8.47,2.94-12.62,1.42-4.84,4.56-7.41,9.93-7.27,8.8.23,17.61.14,26.42.13,7.5,0,10.5,2.61,10.04,10.11-.52,8.46-1.4,16.94-2.84,25.28-2.99,17.37-5.95,34.76-9.87,51.93-2.99,13.1-11.37,18.29-24.86,18.15-18.96-.2-37.92-.08-56.88.07-11.4.09-20.87-3.39-25.59-14.47-5.14-12.06-10.43-24.16-14.16-36.68-15.51-52-27.85-104.82-38.65-157.97-2.96-14.56-4.25-29.62-4.63-44.5-.45-17.95,10.27-29.16,26.8-33.32,14.74-3.71,30.01-6,45.18-7.14,28.82-2.17,57.73-3.32,86.62-4.41,13.22-.5,23.73,5.7,31.64,16.1,5.62,7.39,5.9,16.05,4.82,24.84-3.61,29.22-7.3,58.43-10.91,87.65-.88,7.1-1.58,14.22-2.37,21.33-.46,4.17-2.55,6.95-6.93,7.09-9.78.3-19.59.71-29.36.43-4.89-.14-7.98-4.43-7.75-9.89.82-19.28,1.72-38.57,2.84-57.84.78-13.38.96-13.36-12.19-16.21-2.22-.48-4.43-1.01-6.71-2.54,5.2-1.06,10.4-2.15,15.62-3.18,2.4-.47,5.19-.23,4.88-4.09-.29-3.63.34-7.62-4.53-8.8-.96-.23-1.99-.41-2.96-.33-21.35,1.71-42.73,3.15-64.03,5.35-8.88.92-10.57,4-9.32,12.96,1.01,7.25,2.39,14.44,3.41,21.69.39,2.81,1.67,3.96,4.44,4.3,6.19.75,12.34,1.79,18.49,3.47-4.98,1.19-9.94,2.56-14.96,3.53-4.35.83-6.51,2.67-4.78,7.33.4,1.08.53,2.27.7,3.42.74,5.03.26,11,8.99,10.11-7.04,1.64-6.23,5.63-5.17,10.48,7.81,35.78,16.45,71.32,29.35,105.67,1.16,3.1,2.37,6.31,4.25,8.97,3.8,5.36,9.56,4.55,11.72-1.65,2.44-7.01,4.39-14.2,6.65-21.64Z"></path></g></g></svg>